<svg xmlns="http://www.w3.org/2000/svg" width="33.801" height="33.801" viewBox="0 0 33.801 33.801">
  <path id="Icon_ionic-ios-checkmark-circle" data-name="Icon ionic-ios-checkmark-circle" d="M20.275,3.375a16.9,16.9,0,1,0,16.9,16.9A16.9,16.9,0,0,0,20.275,3.375ZM28.929,15.6,18.065,26.516h-.008a1.467,1.467,0,0,1-.943.447,1.422,1.422,0,0,1-.951-.463l-4.55-4.55a.324.324,0,0,1,0-.463L13.06,20.04a.314.314,0,0,1,.455,0l3.608,3.608,9.913-9.986a.321.321,0,0,1,.228-.1h0a.3.3,0,0,1,.228.1l1.422,1.471A.32.32,0,0,1,28.929,15.6Z" transform="translate(-3.375 -3.375)" fill="#164066"/>
</svg>
